<svg height="460pt" viewBox="0 -9 460.43997 460" width="460pt" xmlns="http://www.w3.org/2000/svg"><path d="m413.71875 177.308594-1.640625-67.179688c-.757813-14.984375 10.398437-27.921875 25.332031-29.378906l23.019532 145.269531c.28125 18.234375-5.320313 36.070313-15.96875 50.871094l-56.351563 68.199219c-5.1875 6.273437-7.746094 14.3125-7.140625 22.429687l3.722656 21.199219-80.671875-38.429688.300781-.640624c-6.21875-30.59375 5.179688-62.097657 29.539063-81.628907l4.46875-3.589843c7.007813-5.617188 12.648437-12.742188 16.511719-20.851563l21.539062-45.21875c6.757813-14.191406 21.699219-22.617187 37.339844-21.050781zm0 0" fill="#f7caa5"/><path d="m230.21875.21875c55.582031 0 100.636719 45.050781 100.640625 100.632812.003906 55.578126-45.050781 100.636719-100.628906 100.636719-55.578125.003907-100.636719-45.050781-100.640625-100.628906s45.050781-100.636719 100.628906-100.640625zm0 0" fill="#00efd1"/><path d="m46.71875 177.308594c15.644531-1.566406 30.585938 6.859375 37.339844 21.050781l21.542968 45.21875c3.859376 8.109375 9.503907 15.234375 16.507813 20.851563l4.46875 3.589843c24.359375 19.53125 35.761719 51.035157 29.542969 81.628907l.300781.640624-80.671875 38.429688 3.71875-21.199219c.605469-8.117187-1.953125-16.15625-7.140625-22.429687l-56.347656-68.199219c-10.648438-14.800781-16.25-32.636719-15.9687502-50.871094l23.0195312-145.269531c14.382812 1.402344 25.355469 13.488281 25.367188 27.941406 0 .480469-.019532.957032-.039063 1.4375zm0 0" fill="#f7caa5"/><path d="m304.3125 357.652344c-3.804688-.003906-7.074219-2.683594-7.832031-6.410156-6.902344-33.535157 5.609375-68.109376 32.375-89.464844l4.464843-3.585938c6.058594-4.871094 10.945313-11.039062 14.300782-18.050781l21.539062-45.21875c5.152344-10.839844 14.398438-19.183594 25.710938-23.195313 11.308594-4.015624 23.75-3.363281 34.578125 1.804688 3.992187 1.898438 5.683593 6.671875 3.785156 10.660156l-35.398437 74.332032c-1.21875 2.59375-3.738282 4.339843-6.59375 4.570312-2.859376.234375-5.625-1.082031-7.246094-3.449219-1.621094-2.367187-1.855469-5.417969-.605469-8.003906l31.484375-66.109375c-.640625-.105469-1.289062-.191406-1.9375-.257812-12.28125-1.21875-24.011719 5.390624-29.332031 16.527343l-21.539063 45.222657c-4.394531 9.1875-10.792968 17.269531-18.730468 23.652343l-4.464844 3.585938c-22.082032 17.613281-32.402344 46.132812-26.710938 73.796875.476563 2.355468-.128906 4.800781-1.648437 6.660156s-3.796875 2.941406-6.199219 2.941406zm0 0" fill="#edb288"/><path d="m156.128906 357.652344c-2.402344 0-4.675781-1.082032-6.199218-2.941406-1.519532-1.859376-2.125-4.304688-1.648438-6.660157 5.691406-27.664062-4.628906-56.179687-26.707031-73.792969l-4.472657-3.59375c-7.933593-6.378906-14.332031-14.460937-18.722656-23.644531l-21.542968-45.21875c-5.316407-11.136719-17.039063-17.746093-29.316407-16.53125-.65625.066407-1.308593.152344-1.953125.261719l31.488282 66.109375c1.246093 2.582031 1.015624 5.636719-.605469 8-1.625 2.367187-4.386719 3.683594-7.246094 3.453125-2.859375-.234375-5.375-1.976562-6.59375-4.574219l-35.402344-74.328125c-1.898437-3.992187-.203125-8.765625 3.785157-10.664062 10.832031-5.167969 23.273437-5.816406 34.582031-1.804688 11.308593 4.015625 20.558593 12.359375 25.710937 23.199219l21.535156 45.21875c3.351563 7.011719 8.234376 13.179687 14.289063 18.046875l4.476563 3.59375c26.761718 21.355469 39.273437 55.921875 32.375 89.457031-.753907 3.726563-4.03125 6.410157-7.832032 6.414063zm0 0" fill="#edb288"/><path d="m269.378906 117.25h-44.75c-4.417968 0-8-3.582031-8-8v-58.738281c0-4.421875 3.582032-8 8-8 4.417969 0 8 3.578125 8 8v50.738281h36.75c4.417969 0 8 3.582031 8 8s-3.582031 8-8 8zm0 0" fill="#fedb41"/><g fill="#00acea"><path d="m384.691406 388.71875 6.617188 3.152344-23.609375 49.589844-108.820313-51.832032 23.621094-49.589844 21.519531 10.25zm0 0"/><path d="m75.75 388.71875 80.671875-38.429688 21.519531-10.25 23.617188 49.589844-108.820313 51.832032-23.609375-49.589844zm0 0"/></g></svg>