<svg enable-background="new 0 0 100 100" height="512" viewBox="0 0 100 100" width="512" xmlns="http://www.w3.org/2000/svg"><path d="m50.12397 93.0109634c2.9071121 0 5.3633385-5.7576675 7.0147324-7.8915482-.2428703-.0238037-.478569-.0703201-.709404-.1292801-1.5387497 1.8347626-4.4515686-2.6098633-7.0334587-2.6098633-2.5818939 0-4.2838364 4.4446259-5.8225861 2.6098633-.230835.05896-.4665337.1054764-.709404.1292801 1.6513939 2.1338807 4.3530045 7.8915482 7.2601204 7.8915482z" fill="#e6e7e8"/><path d="m69.0147324 45.1350517h-11.940445c-3.4192276 0-6.2010841-2.7814293-6.2010841-6.2006569h-1.7462769c0 3.4192276-2.7818565 6.2006569-6.2015114 6.2006569h-11.9400158c-4.382328 0-7.9477901 3.5650368-7.9477901 7.9477882v.3828545h1.7462788v-.3828544c0-3.4192276 2.7818546-6.2015076 6.2015114-6.2015076h11.9400157c2.5074539 0 4.7437553-1.1700859 6.2015114-2.9896927v14.9365311h1.7462769v-14.9363213c1.4576492 1.819397 3.6937408 2.9894829 6.2010841 2.9894829h11.9404449c3.4192276 0 6.2010803 2.78228 6.2010803 6.2015076v.3828545h1.7462845v-.3828545c.0000001-4.3827515-3.5650405-7.9477883-7.9473647-7.9477883z" fill="#4abaa4"/><path d="m62.3763351 90.0139465c-1.4963799 1.4431992-3.2411995 2.6202087-5.1634521 3.4660263-.124218.0591354-.2543221.1123428-.3844643.1656265-2.0996818.875351-4.4063987 1.3544007-6.8254585 1.3544007-2.4190941 0-4.7257767-.4790497-6.8313789-1.3544006-.1301422-.0532837-.2602463-.1064911-.3844643-.1656265-1.9222527-.8458176-3.6670723-2.0287476-5.1634521-3.4718781l.0354843-.4613571c.1833534-2.4782639 2.247551-4.4064331 4.7376175-4.4064331.1596718 0 .3134575-.0059204.4672432-.023613 1.6501656 2.13517 4.2289658 3.5192413 7.1389503 3.5192413 2.9040642 0 5.48283-1.3840714 7.1330299-3.5192413.1537857.0176926.3134575.023613.4672432.023613 2.4900665 0 4.5601845 1.9281693 4.7376175 4.4064331z" fill="#4388b9"/><path d="m52.8565979 80.3941727v-1.4604568h-5.7106438v1.4604568c0 2.2159653-1.5199547 4.0719604-3.5727005 4.5959625 1.5387497 1.8347626 3.8461304 3.0031281 6.4280243 3.0031281 2.5818901 0 4.8892708-1.1683655 6.4280205-3.0031281-2.0526123-.5240021-3.5727005-2.3799973-3.5727005-4.5959625z" fill="#ffd25a"/><path d="m57.748333 75.6964264-2.2588615-4.2433395v-.5793152c0-.8735657-.7757988-1.5802612-1.7306366-1.5802612h-7.5151176c-.9548378 0-1.7306366.7066956-1.7306366 1.5802612v.5793152h-1.0774879l1.175663 6.8913116c.134552.6040573.4132538 1.1767426.8586922 1.6472015.0869522.0918198.1763382.1748505.2663994.2436752.63097.477623 2.0674896 1.4638367 2.0674896 1.4638367.8397598.7998657 2.199604.9280624 2.199604.9280624s1.3555183-.1281967 2.1952782-.9280624c0 0 1.4365158-.9862137 2.0674858-1.4638367.0900612-.0688248.1794472-.1518555.2663994-.2436752.4454384-.470459.7241402-1.0431442.8586922-1.6472015z" fill="#fdd96f"/><path d="m46.2183266 80.9274139s-2.3689117-3.5751038-1.9503593-6.6952286c0 0 .1017075-1.2176132.9260139-1.7503128.8243027-.5327072.7101517-1.14151.7101517-1.14151s.3300095 1.14151-.7101517 1.7883606c0 0 2.4224167 0 2.7648697-2.9298706 0 0 2.1308174 3.538681 5.3270454 2.8918228 0 0-.9893074-1.0654068-1.255661-1.712265 0 0 1.826416 2.3591232 3.42453 2.625473 0 0-.0760994-.8751602-.456604-1.369812 0 0 3.025589 3.1743317-1.0682755 8.198616 0 0 2.3076248-1.6400681 3.3621025-3.5009155 0 0 .3101425 1.3025894-1.1785355 2.4811249 0 0 4.7141457-.1860809 2.3570747-6.3268738 0 0-.2481155-14.6386566-10.0485725-10.8549385 0 0-4.0938606-1.4266472-6.0167351 3.7216911-1.9228745 5.1483459-.5582542 6.3889084-.5582542 6.3889084s-1.8077393 2.7292404-.4696732 4.9002304c1.33807 2.1709824 4.8410341 3.2854996 4.8410341 3.2854996z" fill="#344e5c"/><path d="m71.8559036 76.842659c.3513412 2.1849747 2.2445908 3.8612442 4.5270996 3.8612442 2.2825317 0 4.1758118-1.6762695 4.5271225-3.8612976-.8058243-.5607681-.7695312-1.3319473-.7695312-1.3319473v-2.3883362h-7.5151367v2.3883362s.0363235.7712097-.7695542 1.3320007z" fill="#d6b24e"/><path d="m82.3053589 63.7446022c-.0012894 0-.0025253.4096718-.0037689.4096718-.0799789-3.2573738-2.7111664-6.3064194-5.918541-6.3064194-3.2073822 0-5.8386154 3.0490456-5.9185486 6.3064194-.0012436 0-.0024796-.4096718-.0037689-.4096718-.6539383 0-1.1840057 1.4776573-1.1840057 2.7957573s.5300674 2.3864746 1.1840057 2.3864746v.0852051c0 1.6281891 1.4183807 3.6883011 2.8668518 5.3675232 1.615036 1.8723526 4.495842 1.8723526 6.1108704 0 1.4485245-1.6792221 2.8669052-3.7393341 2.8669052-5.3675232v-.0852051c.6538925 0 1.1840134-1.0683746 1.1840134-2.3864746s-.5301209-2.7957573-1.1840134-2.7957573z" fill="#ffd25a"/><path d="m81.0928421 79.0517426-1.0705414 3.1524658-2.1943054 6.4291916c-.0177612.0059204-.0354843.0118408-.0532455.0059204-.0414047.0059204-.0828171.0118408-.1301041.0059204l-.2780075-.6329041-.6091843-1.3957672-.065094-5.9264679-.0236435-1.9992142.7866592-.804306.4140244-.4199905 1.6206055.7984619h.0059204l.7215652.3549347.5559769.272049z" fill="#e6e7e8"/><path d="m91.7509995 79.9270935c-2.4900665 4.2171326-6.6657867 7.3163834-11.6044846 8.369133-.5737305.1242523-1.1533585.2248306-1.7448196.2839584l.7570877-2.5610046.8635178-3.8149719.0059204-.0413666.7452469-3.2708054.1951904-.8339844 1.4668121-1.6382828h.0059204c.242485.0531388 7.3223038 1.6382829 9.3096085 3.5073243z" fill="#467080"/><path d="m80.1514511 75.2482758-3.7723465 1.9645004 2.9425507 1.837738z" fill="#dad7dc"/><path d="m76.0890961 78.6908875-.0236816 1.9992142-.0650482 5.9264679-.6091919 1.3957672-.2780075.6329041c-.0414047.0059204-.0887299 0-.1301041-.0059204-.0177612.0059204-.0354843 0-.0532455-.0059204l-2.2179794-6.5060806v-.0059204l-1.0469055-3.0696564.3134995-.1537857.5678101-.2779694.7215729-.3549347 1.6205978-.7984619.414032.4199905z" fill="#e6e7e8"/><path d="m74.3679199 88.5801849c-.5973816-.0591278-1.1829224-.1597061-1.7566223-.2839584-4.9387283-1.05867-9.1144524-4.1579208-11.6044846-8.369133 1.9991455-1.8749619 9.0670853-3.4541855 9.3096085-3.5073242h.0059204l1.4668121 1.6382828.1892776.8339844v.0059204l.7334061 3.2234421v.0059204l.8871918 3.891861z" fill="#467080"/><path d="m72.6067581 75.2482758 3.7723465 1.9645004-2.9425506 1.837738z" fill="#dad7dc"/><path d="m77.7747498 88.6393204c-.0414047.0059204-.0828171.0118408-.1301041.0059204-.1360626.0177612-.2780075.0296021-.4258728.0296021-.2779694.0177612-.5559769.023613-.8398666.023613s-.5618973-.0058517-.8398666-.023613c-.141983 0-.2839279-.0118408-.4258728-.0296021-.0414047.0059204-.0887299 0-.1301041-.0059204l.1419449-1.8453598.4850082-6.163063.0946198-1.2006836-.7038422-1.3544006.301651-.1892319 1.0764618-.6684265 1.0764694.6684265.301651.1892319-.7038422 1.3544006.0946198 1.206604.4850006 6.1571426z" fill="#db584d"/><path d="m75.5390396 88.6748428c-.141983 0-.2839279-.0118408-.4258728-.0296021-.0414047.0059204-.0887299 0-.1301041-.0059204-.0177612.0059204-.0354843 0-.0532455-.0059204-.18927-.0059204-.3726196-.0236816-.5618973-.053215-.5973816-.0591278-1.1829224-.1597061-1.7566223-.2839584l-2.8744965-5.5478439 1.6915741-.9877701-1.9281769-1.0645905.8162231-4.2762527h.0059204l2.2830353-1.1711578h.0059204v.0059204l.0118027.047287.6447144 2.9632339.1715088.7866898.1478653.6860428v.0059204l1.5378189 7.0502548.2661667 1.2183762z" fill="#647f89"/><path d="m81.3294449 81.7606125 1.6915665.9877701-2.8744965 5.5478439c-.5737305.1242523-1.1533585.2248306-1.7448196.2839584-.18927.023613-.37854.0472946-.5737.053215-.0177612.0059204-.0354843.0118408-.0532455.0059204-.0414047.0059204-.0828171.0118408-.1301041.0059204-.1360626.0177612-.2780075.0296021-.4258728.0296021l.1478653-.6625061.2661667-1.2183762 1.531868-7.038414.1537857-.7097244.1715469-.7807693.650589-2.9868393.0059204-.0236816v-.0059204h.0059204l2.2830353 1.1711578h.0059204l.8221436 4.2762527z" fill="#647f89"/><path d="m81.9967194 58.5216331s-.9081573-3.9672852-7.0264206-2.4854431c-6.1183243 1.481739-5.8793564 5.6880913-5.8793564 5.6880913s.0956573 2.9157257.3346176 3.823822c.2233505.8488388.6916275 1.4995422.7527542 2.9452515h.3803482c-.087883-.5271683-.2096024-1.7312546.0685349-3.5279465.0891571-.5757675.5517883-1.0260887 1.1302185-1.0963249 2.2353439-.2714729 7.1157913.4099236 8.757515-3.1008644 0 0 1.2428284-.1433563 1.3862305 2.0076256.1433563 2.1508751.0955582 2.7722588.5257339 3.1069374l-.213974 2.6105728h.2704086c.1393585-.7276535.5190125-2.5354309.8995743-2.8017883 0 0 1.2427749-6.0226593-1.3861847-7.1699334z" fill="#344e5c"/><path d="m19.0980892 76.842659c.3513412 2.1849747 2.2445889 3.8612442 4.5270977 3.8612442 2.2825356 0 4.1758118-1.6762695 4.5271263-3.8612976-.8058262-.5607681-.7695312-1.3319473-.7695312-1.3319473v-2.3883362h-7.5151348v2.3883362s.0363216.7712097-.769558 1.3320007z" fill="#d6b24e"/><path d="m29.5475464 63.7446022c-.0012894 0-.0025311.4096718-.0037727.4096718-.0799789-3.2573738-2.7111664-6.3064194-5.9185429-6.3064194s-5.8386135 3.0490456-5.9185448 6.3064194c-.0012398 0-.0024815-.4096718-.0037727-.4096718-.6539364 0-1.1840057 1.4776573-1.1840057 2.7957573s.5300694 2.3864746 1.1840057 2.3864746v.0852051c0 1.6281891 1.4183865 3.6883011 2.8668556 5.3675232 1.6150341 1.8723526 4.4958401 1.8723526 6.1108723 0 1.4485207-1.6792221 2.8669052-3.7393341 2.8669052-5.3675232v-.0852051c.6538868 0 1.1840076-1.0683746 1.1840076-2.3864746s-.5301208-2.7957573-1.1840076-2.7957573z" fill="#ffd25a"/><path d="m28.3350277 79.0517426-1.0705452 3.1524658-2.1943016 6.4291916c-.0177593.0059204-.0354862.0118408-.0532475.0059204-.0414066.0059204-.0828133.0118408-.1301041.0059204l-.2780056-.6329041-.6091862-1.3957672-.0650883-5.9264679-.0236454-1.9992142.7866535-.804306.414032-.4199905 1.6205997.7984619h.0059204l.7215652.3549347.5559769.272049z" fill="#e6e7e8"/><path d="m38.993187 79.9270935c-2.4900703 4.2171326-6.6657906 7.3163834-11.6044846 8.369133-.5737362.1242523-1.1533585.2248306-1.7448196.2839584l.7570896-2.5610046.8635101-3.8149719.0059204-.0413666.7452488-3.2708054.1951923-.8339844 1.466814-1.6382828h.0059204c.2424832.0531388 7.3223039 1.6382829 9.3096086 3.5073243z" fill="#344e5c"/><path d="m27.3936329 75.2482758-3.7723446 1.9645004 2.9425507 1.837738z" fill="#dad7dc"/><path d="m23.3312817 78.6908875-.0236817 1.9992141-.065052 5.9264679-.6091862 1.3957672-.2780075.6329041c-.0414066.0059204-.0887337 0-.1301041-.0059204-.0177612.0059204-.0354862 0-.0532475-.0059204l-2.2179813-6.5060806v-.0059204l-1.0468998-3.0696564.3134918-.1537857.5678158-.2779694.7215672-.3549347 1.6205997-.7984619.414032.4199905z" fill="#e6e7e8"/><path d="m21.6101074 88.5801849c-.5973835-.0591278-1.1829243-.1597061-1.7566261-.2839584-4.9387293-1.05867-9.1144495-4.1579208-11.6044817-8.369133 1.9991446-1.8749619 9.0670862-3.4541855 9.3096075-3.5073242h.0059204l1.466814 1.6382828.1892719.8339844v.0059204l.733408 3.2234421v.0059204l.8871918 3.891861z" fill="#344e5c"/><path d="m19.8489437 75.2482758 3.7723446 1.9645004-2.9425507 1.837738z" fill="#dad7dc"/><path d="m25.0169334 88.6393204c-.0414066.0059204-.0828133.0118408-.1301041.0059204-.1360607.0177612-.2780056.0296021-.4258709.0296021-.2779694.0177612-.555975.023613-.8398666.023613-.2838898 0-.5618954-.0058517-.8398647-.023613-.1419811 0-.283926-.0118408-.4258728-.0296021-.0414066.0059204-.0887337 0-.1301041-.0059204l.1419449-1.8453598.4850044-6.163063.0946178-1.2006836-.7038422-1.3544006.3016529-.1892319 1.0764637-.6684265 1.0764656.6684265.301651.1892319-.7038403 1.3544006.0946178 1.206604.4850025 6.1571426z" fill="#f37735"/><path d="m22.7812271 88.6748428c-.1419811 0-.283926-.0118408-.4258728-.0296021-.0414066.0059204-.0887337 0-.1301041-.0059204-.0177612.0059204-.0354862 0-.0532475-.0059204-.1892719-.0059204-.3726234-.0236816-.5618954-.053215-.5973835-.0591278-1.1829243-.1597061-1.7566261-.2839584l-2.8744965-5.5478439 1.6915722-.9877701-1.9281712-1.0645905.8162212-4.2762527h.0059204l2.2830334-1.1711578h.0059204v.0059204l.0118046.047287.6447105 2.9632339.1715107.7866898.1478653.6860428v.0059204l1.5378227 7.0502548.2661667 1.2183762z" fill="#293b44"/><path d="m28.5716267 81.7606125 1.6915741.9877701-2.8744984 5.5478439c-.5737362.1242523-1.1533585.2248306-1.7448196.2839584-.1892719.023613-.3785439.0472946-.5737019.053215-.0177593.0059204-.0354862.0118408-.0532475.0059204-.0414066.0059204-.0828133.0118408-.1301041.0059204-.1360607.0177612-.2780056.0296021-.4258709.0296021l.1478653-.6625061.2661648-1.2183762 1.531868-7.038414.1537857-.7097244.1715469-.7807693.6505928-2.9868393.0059204-.0236816v-.0059204h.0059204l2.2830353 1.1711578h.0059204l.8221416 4.2762527z" fill="#293b44"/><path d="m16.6677456 65.548172c.2233582.8487473.691618 1.4995041.7527313 2.9451981h.3803387c-.1032143-.6191864-.2530956-2.1723099.2530956-4.5225487 0 0 1.1471691-.0956192 2.3899555-1.386116 0 0-.3346138 1.003643-1.1471691 1.5294914 0 0 1.9119663-.6213684 4.1584949-2.8200874 0 0-.1911869 1.3382568-2.3899555 2.676712 0 0 3.0591831-.477993 4.588726-2.4855766 0 0-.6213684 1.3862152-2.1031513 2.246582 0 0 2.9157562-.477993 4.2063026-2.9635658 0 0 1.2427883-.1433792 1.3862152 2.0075836.1433773 2.150959.0955677 2.7723274.5257511 3.106945l-.213974 2.6105804h.2703724c.1393547-.7276077.5190468-2.5354233.8995838-2.8018188 0 0 1.2427883-6.0226517-1.3861656-7.1698723 0 0-.9081726-3.967308-7.0264416-2.4854736-6.1183186 1.4817314-5.879324 5.6880379-5.879324 5.6880379s.0956194 2.915802.334614 3.8239288z" fill="#344e5c"/><path d="m63.1862946 17.6516476c-.2755203-6.7625704-5.8206291-12.3388557-12.5820808-12.6383581-7.5635529-.3347816-13.8017273 5.6990709-13.8017273 13.188653 0 4.127697 1.8995476 7.8122158 4.874054 10.2292309 1.9532127 1.5870419 3.04533 4.0011806 3.04533 6.5178509v.0085297h10.5562859c0-2.5045242 1.0705338-4.9214325 3.0177231-6.4965363 3.1222304-2.5256253 5.0680922-6.4475079 4.8904151-10.8093701z" fill="#feed32"/><path d="m53.7679596 23.4449387c0-2.0779705-1.6904297-3.7679729-3.7679749-3.7679729-2.0775414 0-3.767971 1.6900024-3.767971 3.7679729 0 1.7752705 1.2387772 3.2585011 2.8948326 3.6547813v7.8580437h1.7462807v-7.8580437c1.6560554-.3962803 2.8948326-1.8795109 2.8948326-3.6547813zm-3.7679749 2.0208416c-1.114872 0-2.0216942-.906395-2.0216942-2.0208416s.9068222-2.0216942 2.0216942-2.0216942c1.1148758 0 2.0216942.9072475 2.0216942 2.0216942s-.9068184 2.0208416-2.0216942 2.0208416z" fill="#ffcb08"/><path d="m45.6886177 36.9007378v.7077217c0 1.4640465 1.1868706 2.6509705 2.6509705 2.6509705h3.320797c1.4640999 0 2.6509705-1.186924 2.6509705-2.6509705v-.7077217z" fill="#293b44"/><path d="m55.1845207 34.8291664h-10.3690147c-.7320251 0-1.3254852.5934639-1.3254852 1.3254852s.5934601 1.3254852 1.3254852 1.3254852h10.3690147c.7320213 0 1.3254852-.5934639 1.3254852-1.3254852s-.5934638-1.3254852-1.3254852-1.3254852z" fill="#344e5c"/></svg>