<?xml version="1.0" encoding="UTF-8" standalone="no"?>
<!DOCTYPE svg PUBLIC "-//W3C//DTD SVG 1.1//EN" "http://www.w3.org/Graphics/SVG/1.1/DTD/svg11.dtd">
<svg width="100%" height="100%" viewBox="0 0 127 127" version="1.1" xmlns="http://www.w3.org/2000/svg" xmlns:xlink="http://www.w3.org/1999/xlink" xml:space="preserve" xmlns:serif="http://www.serif.com/" style="fill-rule:evenodd;clip-rule:evenodd;stroke-linejoin:round;stroke-miterlimit:2;">
    <g transform="matrix(1,0,0,1,-2011,-1728)">
        <g transform="matrix(4.16667,0,0,4.16667,0,0)">
            <path d="M485.833,431.042C488.587,432.964 491.397,431.629 492.405,431.022C492.945,431.603 493.332,432.284 493.613,432.974C493.089,433.621 492.361,434.734 491.907,436.318L483.758,436.319C483.944,433.487 485.242,431.713 485.833,431.042ZM494.64,433.394C497.393,435.314 500.203,433.98 501.21,433.374C502.776,435.055 503.077,437.594 503.132,438.669L492.564,438.671C492.75,435.839 494.048,434.064 494.64,433.394ZM503.54,431.042C506.293,432.964 509.103,431.629 510.111,431.022C511.676,432.703 511.977,435.242 512.033,436.317L503.851,436.319C503.585,435.243 503.114,434.036 502.287,433.01C502.724,432.055 503.229,431.395 503.54,431.042ZM482.836,437.216C482.935,437.315 483.07,437.372 483.211,437.372L491.667,437.37C491.566,437.933 491.5,438.535 491.49,439.19C491.488,439.331 491.542,439.467 491.642,439.567C491.74,439.667 491.875,439.724 492.017,439.724L503.67,439.722C503.954,439.722 504.186,439.496 504.196,439.213C504.198,439.14 504.217,438.395 504.061,437.372L512.57,437.37C512.854,437.37 513.086,437.145 513.096,436.861C513.102,436.681 513.21,432.412 510.535,429.961C510.347,429.788 510.061,429.776 509.858,429.932C509.828,429.956 506.715,432.294 503.818,429.935C503.62,429.772 503.334,429.777 503.141,429.945C503.079,429.999 502.228,430.757 501.488,432.219C501.317,432.145 501.114,432.165 500.959,432.282C500.832,432.38 497.801,434.634 494.918,432.286C494.776,432.171 494.592,432.142 494.427,432.194C494.055,431.396 493.541,430.613 492.829,429.961C492.64,429.788 492.355,429.776 492.152,429.932C492.121,429.956 489.009,432.294 486.112,429.935C485.914,429.772 485.628,429.777 485.435,429.945C485.325,430.041 482.749,432.33 482.685,436.839C482.683,436.979 482.737,437.115 482.836,437.216Z" style="fill:rgb(233,165,4);fill-rule:nonzero;"/>
            <path d="M486.26,421.751C487.003,421.007 487.99,420.598 489.038,420.597C491.204,420.597 492.967,422.359 492.968,424.526C492.968,425.574 492.56,426.561 491.815,427.304C491.073,428.048 490.087,428.457 489.039,428.457L489.038,428.457C486.872,428.457 485.108,426.695 485.107,424.529C485.107,423.48 485.517,422.494 486.26,421.751ZM495.065,424.103C495.809,423.358 496.795,422.949 497.843,422.949C500.009,422.949 501.772,424.711 501.773,426.878C501.774,427.926 501.365,428.912 500.621,429.656C499.878,430.399 498.892,430.809 497.845,430.809L497.843,430.809C495.677,430.809 493.914,429.047 493.913,426.881C493.913,425.833 494.322,424.846 495.065,424.103ZM503.965,421.751C504.708,421.007 505.696,420.598 506.744,420.597C508.91,420.597 510.673,422.359 510.674,424.526C510.674,425.574 510.265,426.561 509.521,427.304C508.779,428.048 507.793,428.457 506.745,428.457L506.744,428.457C504.577,428.457 502.814,426.695 502.814,424.529C502.813,423.48 503.223,422.494 503.965,421.751ZM489.038,429.51L489.039,429.51C490.369,429.51 491.619,428.991 492.56,428.048C492.69,427.918 492.811,427.78 492.925,427.639C493.292,430.025 495.355,431.861 497.843,431.861L497.845,431.861C499.174,431.861 500.424,431.342 501.365,430.399C502.151,429.614 502.637,428.612 502.779,427.532C503.689,428.73 505.126,429.51 506.744,429.51L506.745,429.51C508.075,429.51 509.325,428.991 510.266,428.048C511.208,427.105 511.728,425.854 511.727,424.526C511.726,421.779 509.49,419.545 506.744,419.545C505.414,419.545 504.163,420.064 503.221,421.007C502.436,421.792 501.95,422.794 501.809,423.875C500.898,422.676 499.461,421.896 497.843,421.896C496.514,421.896 495.263,422.416 494.32,423.358C494.19,423.488 494.07,423.626 493.957,423.768C493.588,421.38 491.525,419.545 489.038,419.545C487.708,419.545 486.457,420.064 485.515,421.007C484.573,421.949 484.055,423.2 484.055,424.529C484.056,427.275 486.292,429.51 489.038,429.51Z" style="fill:rgb(233,165,4);fill-rule:nonzero;"/>
        </g>
    </g>
</svg>
