<?xml version="1.0" encoding="UTF-8" standalone="no"?>
<!DOCTYPE svg PUBLIC "-//W3C//DTD SVG 1.1//EN" "http://www.w3.org/Graphics/SVG/1.1/DTD/svg11.dtd">
<svg width="100%" height="100%" viewBox="0 0 168 168" version="1.1" xmlns="http://www.w3.org/2000/svg" xmlns:xlink="http://www.w3.org/1999/xlink" xml:space="preserve" xmlns:serif="http://www.serif.com/" style="fill-rule:evenodd;clip-rule:evenodd;stroke-linejoin:round;stroke-miterlimit:2;">
    <g transform="matrix(1,0,0,1,-1452,-3051)">
        <g transform="matrix(4.16667,0,0,4.16667,0,0)">
            <path d="M372.409,746.37L368.911,748.946L365.414,746.37C365.255,746.212 364.997,746.212 364.837,746.37C364.678,746.53 364.678,746.788 364.837,746.947L368.495,749.713L368.495,752.447C368.495,752.671 368.678,752.853 368.903,752.853C369.127,752.853 369.311,752.671 369.311,752.447L369.311,749.726L372.984,746.947C373.144,746.788 373.144,746.53 372.984,746.37C372.826,746.212 372.568,746.212 372.409,746.37Z" style="fill:rgb(233,165,4);fill-rule:nonzero;"/>
            <path d="M361.351,738.86C361.352,739.827 360.974,740.736 360.289,741.422C359.603,742.108 358.694,742.486 357.728,742.486L357.726,742.486C355.729,742.486 354.102,740.86 354.101,738.863C354.101,737.896 354.479,736.986 355.164,736.3C355.85,735.614 356.76,735.237 357.726,735.236C359.724,735.236 361.35,736.862 361.351,738.86ZM354.241,735.378C353.31,736.311 352.797,737.548 352.797,738.863C352.798,741.58 355.009,743.79 357.726,743.79L357.728,743.79C359.042,743.79 360.28,743.276 361.211,742.345C362.143,741.412 362.656,740.174 362.656,738.86C362.654,736.143 360.443,733.932 357.726,733.932C356.411,733.932 355.173,734.446 354.241,735.378Z" style="fill:rgb(233,165,4);fill-rule:nonzero;"/>
            <path d="M354.672,745.306C357.025,746.868 359.55,746.127 360.938,745.292C362.265,746.794 362.575,748.968 362.646,750.029L352.816,750.032C353.017,747.543 354.098,745.976 354.672,745.306ZM352.133,751.336L363.318,751.334C363.669,751.334 363.958,751.055 363.969,750.703C363.975,750.527 364.082,746.365 361.464,743.968C361.23,743.753 360.877,743.739 360.626,743.932C360.597,743.954 357.702,746.128 355.011,743.937C354.766,743.736 354.411,743.742 354.171,743.95C354.064,744.043 351.544,746.283 351.481,750.675C351.479,750.849 351.546,751.018 351.669,751.142C351.792,751.266 351.958,751.336 352.133,751.336Z" style="fill:rgb(233,165,4);fill-rule:nonzero;"/>
            <path d="M377.23,736.3C377.916,735.614 378.826,735.237 379.792,735.236C381.79,735.236 383.416,736.862 383.417,738.86C383.417,739.827 383.04,740.736 382.354,741.422C381.669,742.108 380.76,742.486 379.793,742.486L379.792,742.486C377.794,742.486 376.168,740.86 376.167,738.863C376.167,737.896 376.544,736.986 377.23,736.3ZM379.792,743.79L379.793,743.79C381.108,743.79 382.345,743.276 383.276,742.345C384.208,741.412 384.722,740.175 384.721,738.86C384.72,736.143 382.509,733.932 379.792,733.932C378.477,733.932 377.239,734.446 376.307,735.378C375.375,736.311 374.863,737.548 374.863,738.863C374.864,741.58 377.075,743.79 379.792,743.79Z" style="fill:rgb(233,165,4);fill-rule:nonzero;"/>
            <path d="M374.883,750.032C375.083,747.543 376.164,745.976 376.739,745.306C379.091,746.868 381.616,746.127 383.004,745.292C384.331,746.794 384.641,748.968 384.712,750.029L374.883,750.032ZM386.035,750.703C386.041,750.527 386.147,746.365 383.53,743.968C383.296,743.753 382.943,743.739 382.692,743.932C382.663,743.954 379.768,746.128 377.077,743.937C376.831,743.736 376.477,743.742 376.237,743.95C376.13,744.043 373.61,746.283 373.548,750.675C373.545,750.849 373.613,751.018 373.735,751.142C373.858,751.266 374.025,751.336 374.2,751.336L385.384,751.334C385.735,751.334 386.024,751.055 386.035,750.703Z" style="fill:rgb(233,165,4);fill-rule:nonzero;"/>
            <path d="M371.473,761.749C370.788,762.435 369.878,762.813 368.912,762.813L368.911,762.813C366.913,762.813 365.287,761.188 365.286,759.189C365.286,758.223 365.663,757.313 366.348,756.627C367.034,755.941 367.944,755.563 368.911,755.563C370.909,755.563 372.535,757.189 372.536,759.187C372.536,760.153 372.159,761.063 371.473,761.749ZM368.911,754.259C367.595,754.259 366.357,754.772 365.426,755.705C364.494,756.637 363.981,757.875 363.981,759.19C363.982,761.907 366.194,764.117 368.911,764.117L368.912,764.117C370.227,764.117 371.464,763.604 372.396,762.671C373.328,761.739 373.841,760.501 373.84,759.187C373.839,756.469 371.627,754.259 368.911,754.259Z" style="fill:rgb(233,165,4);fill-rule:nonzero;"/>
            <path d="M365.857,765.633C368.21,767.195 370.735,766.454 372.123,765.619C373.449,767.12 373.76,769.295 373.831,770.356L364.001,770.358C364.201,767.87 365.282,766.303 365.857,765.633ZM363.318,771.663L374.502,771.661C374.854,771.661 375.143,771.382 375.154,771.03C375.16,770.854 375.266,766.692 372.648,764.294C372.415,764.081 372.062,764.065 371.811,764.258C371.782,764.28 368.887,766.455 366.196,764.264C365.95,764.063 365.596,764.069 365.356,764.277C365.249,764.37 362.729,766.609 362.666,771.001C362.663,771.176 362.73,771.344 362.853,771.469C362.976,771.593 363.143,771.663 363.318,771.663Z" style="fill:rgb(233,165,4);fill-rule:nonzero;"/>
        </g>
    </g>
</svg>
