<svg id="flat" height="512" viewBox="0 0 512 512" width="512" xmlns="http://www.w3.org/2000/svg"><path d="m280 120v-24.00007a71.99993 71.99993 0 0 0 -71.99993-71.99993h-.00014a71.99993 71.99993 0 0 0 -71.99993 71.99993v24.00007z" fill="#b1792c"/><path d="m336 290.12012v197.87988h-280v-189.62012a32.00009 32.00009 0 0 1 15.88-27.63988l58.75-34.27 21.37-12.47h104l27.13 16.28 37.33 22.3999a31.99753 31.99753 0 0 1 15.54 27.44022z" fill="#548aff"/><path d="m283.13 240.28-51.32 87.24-23.81 40.48-23.81-40.48-53.56-91.05 21.37-12.47h104z" fill="#e5e7e9"/><path d="m232 256-16 32 15.81 39.52-23.81 40.48-23.81-40.48 15.81-39.52-16-32v-32h48z" fill="#f6bb00"/><path d="m56 488h88a88 88 0 0 1 -88-88z" fill="#486be0"/><path d="m216 296h-16a8 8 0 0 1 0-16h16a8 8 0 0 1 0 16z" fill="#de9400"/><path d="m176 56a40 40 0 0 0 40 40h64v80.00007a71.99993 71.99993 0 0 1 -71.99993 71.99993h-.00014a71.99993 71.99993 0 0 1 -71.99993-71.99993v-64.00007l12.56025-7.53615a56.518 56.518 0 0 0 27.43975-48.46385z" fill="#f5c99d"/><path d="m432 296 24-64v-32.00006a63.99994 63.99994 0 0 0 -63.99994-63.99994h-.00012a63.99994 63.99994 0 0 0 -63.99994 63.99994v32.00006h40v-32a24 24 0 0 1 24-24 24 24 0 0 1 24 24v32l-24 56v64h40z" fill="#e33d3d"/><path d="m392 384h40v40h-40z" fill="#e33d3d"/><path d="m160 120h32v16h-32z" fill="#b1792c"/><path d="m200 208h-8v-16h8a8.00917 8.00917 0 0 0 8-8v-16h16v16a24.02718 24.02718 0 0 1 -24 24z" fill="#c79369"/><circle cx="176" cy="152" fill="#956625" r="8"/><path d="m224 120h32v16h-32z" fill="#b1792c"/><circle cx="240" cy="152" fill="#956625" r="8"/><path d="m288 440h-16a7.99183 7.99183 0 0 1 -1.39014-.12207l-122.78076-21.667a23.96685 23.96685 0 0 1 -19.8291-23.63476v-34.57617h16v34.57617a7.9904 7.9904 0 0 0 6.60986 7.87891l122.09082 21.54492h15.29932z" fill="#486be0"/><path d="m272 432 49.58347-35.41676a13.09672 13.09672 0 0 1 13.46935-1.05683 13.09675 13.09675 0 0 1 6.98537 14.28255l-6.03819 30.19104h17.35238a24 24 0 0 0 12.3479-3.42017l25.7926-15.47556a12.70649 12.70649 0 0 1 15.52227 1.91088 12.70648 12.70648 0 0 1 0 17.96968l-30.61315 30.61317a56 56 0 0 1 -39.598 16.402h-64.804z" fill="#f5c99d"/></svg>