<svg height="512pt" viewBox="0 0 512 512" width="512pt" xmlns="http://www.w3.org/2000/svg"><path d="m91 241c-33 0-60 27-60 60s27 60 60 60 60-27 60-60-27-60-60-60zm0 0" fill="#fdd0d0"/><path d="m91 361c-49.5 0-91 40.5-91 90v46c0 8.398438 7.597656 15 16 15h150c8.402344 0 15-6.601562 15-15v-46c0-49.5-40.5-90-90-90zm0 0" fill="#7ed8f6"/><path d="m372.398438 415.898438c-4.5 6.902343-13.5 9.300781-20.699219 5.101562l-95.699219-57.601562-95.699219 57.601562c-7.199219 4.199219-16.199219 1.800781-20.699219-5.101562-4.203124-7.199219-1.800781-16.5 5.097657-20.699219l96.300781-57.601563v-81.597656c0-8.402344 6.597656-15 15-15s15 6.597656 15 15v81.597656l96.300781 57.601563c6.898438 4.199219 9.300781 13.5 5.097657 20.699219zm0 0" fill="#ff637b"/><path d="m372.398438 415.898438c-4.5 6.902343-13.5 9.300781-20.699219 5.101562l-95.699219-57.601562v-122.398438c8.402344 0 15 6.597656 15 15v81.597656l96.300781 57.601563c6.898438 4.199219 9.300781 13.5 5.097657 20.699219zm0 0" fill="#e63950"/><path d="m256 0c-33 0-60 27-60 60s27 60 60 60 60-27 60-60-27-60-60-60zm0 0" fill="#fdd0d0"/><path d="m256 120c-49.5 0-90 40.5-90 90v46c0 8.398438 6.597656 15 15 15h150c8.402344 0 15-6.601562 15-15v-46c0-49.5-40.5-90-90-90zm0 0" fill="#7ed8f6"/><path d="m256 120v-120c33 0 60 27 60 60s-27 60-60 60zm0 0" fill="#faaaaa"/><path d="m346 210v46c0 8.398438-6.597656 15-15 15h-75v-151c49.5 0 90 40.5 90 90zm0 0" fill="#6aa9ff"/><path d="m91 361v-120c33 0 60 27 60 60s-27 60-60 60zm0 0" fill="#faaaaa"/><path d="m181 451v46c0 8.398438-6.597656 15-15 15h-75v-151c49.5 0 90 40.5 90 90zm0 0" fill="#6aa9ff"/><path d="m421 241c-33 0-60 27-60 60s27 60 60 60 60-27 60-60-27-60-60-60zm0 0" fill="#fdd0d0"/><path d="m421 361c-49.5 0-90 40.5-90 90v46c0 8.398438 6.597656 15 15 15h151c8.402344 0 15-6.601562 15-15v-46c0-49.5-41.5-90-91-90zm0 0" fill="#7ed8f6"/><path d="m421 361v-120c33 0 60 27 60 60s-27 60-60 60zm0 0" fill="#faaaaa"/><path d="m512 451v46c0 8.398438-6.597656 15-15 15h-76v-151c49.5 0 91 40.5 91 90zm0 0" fill="#6aa9ff"/></svg>